<svg id="Layer_1" data-name="Layer 1" xmlns="http://www.w3.org/2000/svg" viewBox="0 0 16 16"><defs><style>.cls-1{fill:#2D9BEB;}</style></defs><title>Lock</title><path class="cls-1" d="M12,6V5A4,4,0,0,0,4,5V6A2,2,0,0,0,2,8v5a2,2,0,0,0,2,2h8a2,2,0,0,0,2-2V8A2,2,0,0,0,12,6ZM5,5a3,3,0,0,1,6,0V6H5Zm8,8a1,1,0,0,1-1,1H4a1,1,0,0,1-1-1V8A1,1,0,0,1,4,7h8a1,1,0,0,1,1,1Z"/><path class="cls-1" d="M10,8.47a2.58,2.58,0,0,0-.84-.7,2.54,2.54,0,0,0-2.28,0,2.58,2.58,0,0,0-.84.7H6A2.45,2.45,0,0,0,5.5,10a2.52,2.52,0,0,0,1,2,1.5,1.5,0,0,0,3,0,2.52,2.52,0,0,0,1-2A2.45,2.45,0,0,0,10,8.48ZM8.75,11.3l-.25.14V12a.5.5,0,0,1-1,0v-.56l-.25-.14A1.52,1.52,0,0,1,6.5,10,1.44,1.44,0,0,1,7,8.88H7a1.48,1.48,0,0,1,2,0H9A1.44,1.44,0,0,1,9.5,10,1.51,1.51,0,0,1,8.75,11.3Z"/></svg>