<svg id="Layer_1" data-name="Layer 1" xmlns="http://www.w3.org/2000/svg" viewBox="0 0 16 16"><defs><style>.cls-1{fill:#2D9BEB;}</style></defs><title>Show</title><path class="cls-1" d="M8,4a8.19,8.19,0,0,1,6.82,3.44,1,1,0,0,1,0,1.12A8.19,8.19,0,0,1,8,12,8.19,8.19,0,0,1,1.18,8.56a1,1,0,0,1,0-1.12A8.19,8.19,0,0,1,8,4M8,3A9.21,9.21,0,0,0,.36,6.87a2,2,0,0,0,0,2.26A9.21,9.21,0,0,0,8,13a9.25,9.25,0,0,0,7.64-3.86,2,2,0,0,0,0-2.28A9.25,9.25,0,0,0,8,3Z"/><path class="cls-1" d="M8,5a2.9,2.9,0,0,0-.79.12A1.5,1.5,0,0,1,5.12,7.21,2.9,2.9,0,0,0,5,8,3,3,0,1,0,8,5Z"/></svg>